<!DOCTYPE svg PUBLIC "-//W3C//DTD SVG 1.1//EN" "http://www.w3.org/Graphics/SVG/1.1/DTD/svg11.dtd">
<!-- Uploaded to: SVG Repo, www.svgrepo.com, Transformed by: SVG Repo Mixer Tools -->
<svg width="64px" height="64px" viewBox="0 -0.5 17 17" version="1.1" xmlns="http://www.w3.org/2000/svg" xmlns:xlink="http://www.w3.org/1999/xlink" class="si-glyph si-glyph-arrow-thin-left" fill="#000000" transform="matrix(-1, 0, 0, 1, 0, 0)">
<g id="SVGRepo_bgCarrier" stroke-width="0"/>
<g id="SVGRepo_tracerCarrier" stroke-linecap="round" stroke-linejoin="round"/>
<g id="SVGRepo_iconCarrier"> <title>1158</title> <defs> </defs> <g stroke="none" stroke-width="1" fill="none" fill-rule="evenodd"> <path d="M1.042,8.01 L7.347,1.317 C7.806,0.858 8.507,1.021 8.706,1.223 C9.108,1.626 9.048,2.221 8.645,2.625 L4.749,7.063 L16.064,7.065 C16.576,7.066 16.99,7.491 16.991,8.017 C16.992,8.542 16.576,8.968 16.064,8.967 L4.852,8.98 L8.706,13.251 C9.108,13.655 9.108,14.31 8.706,14.712 C8.306,15.117 7.756,15.016 7.354,14.611 L1.042,8.01 L1.042,8.01 Z" fill="#BBB" class="si-glyph-fill"> </path> </g> </g>
</svg>